<svg width="299" height="259" viewBox="0 0 299 259" fill="none" xmlns="http://www.w3.org/2000/svg">
<path fill-rule="evenodd" clip-rule="evenodd" d="M49.0322 0H249.968C277.048 0 299 21.7237 299 48.5213V147.467C299 174.264 277.048 195.988 249.968 195.988H100.521L45.6524 257.073C42.1284 260.996 35.5724 258.529 35.5724 253.28L35.5724 194.137C15.0369 188.348 0 169.645 0 147.467V48.5213C0 21.7237 21.9524 0 49.0322 0ZM80 118C91.0457 118 100 109.046 100 98C100 86.9543 91.0457 78 80 78C68.9543 78 60 86.9543 60 98C60 109.046 68.9543 118 80 118ZM150 118C161.046 118 170 109.046 170 98C170 86.9543 161.046 78 150 78C138.954 78 130 86.9543 130 98C130 109.046 138.954 118 150 118ZM240 98C240 109.046 231.046 118 220 118C208.954 118 200 109.046 200 98C200 86.9543 208.954 78 220 78C231.046 78 240 86.9543 240 98Z" fill="#D9D9D9"/>
</svg>
