<svg width="33" height="33" viewBox="0 0 33 33" fill="none" xmlns="http://www.w3.org/2000/svg">
<path d="M31.7136 16.937C31.7136 25.2213 24.9978 31.937 16.7136 31.937C8.42929 31.937 1.71356 25.2213 1.71356 16.937C1.71356 8.65274 8.42929 1.93701 16.7136 1.93701C24.9978 1.93701 31.7136 8.65274 31.7136 16.937Z" fill="#D9D9D9" stroke="#628BFD" stroke-width="2"/>
<path d="M28.9648 7.22271C30.2935 8.30843 31.994 13.6227 32.2154 14.937L32.1394 16.2314C32.2316 16.3403 32.2656 16.4558 32.2154 16.578C32.1916 16.6359 32.1559 16.6822 32.1108 16.7186L31.8831 20.5941C31.3295 20.9475 29.0833 27.7128 27.897 27.2799C25.5244 26.414 27.8971 23.436 27.1141 21.9866C26.3311 20.5371 24.4567 22.4192 23.1043 21.1645C21.7518 19.9097 22.7484 18.6333 23.1043 17.5516C23.4602 16.4699 25.9515 16.4266 26.4735 15.8857C26.9955 15.3449 27.4226 16.5348 28.9648 16.9242C30.1986 17.2357 30.0404 16.6862 30.2935 16.6429C30.2935 16.4792 31.6648 17.0782 32.1108 16.7186L32.1394 16.2314C31.7091 15.7231 30.0129 15.3563 29.7003 15.1069C28.626 14.2498 28.7038 14.3281 28.1818 14.0901C27.7744 13.9044 28.3241 15.5889 27.897 15.3941C27.375 14.1394 26.7739 14.5925 26.0146 14.7656C25.2554 14.9386 24.7334 14.6341 24.5752 14.937C24.0216 15.6227 23.7352 15.951 22.7482 14.4799C21.5144 12.641 24.1008 14.0252 25.1685 13.1166C26.2362 12.208 26.9717 12.3378 27.3751 12.3378C27.8549 12.3378 29.7952 11.4075 29.9613 11.083C30.1274 10.7585 29.3682 10.5638 28.8462 9.6335C28.4286 8.88929 27.6361 10.0878 27.4463 11.0181C27.1378 11.4075 26.8768 11.546 25.643 11.4075C24.1008 11.2344 24.3381 10.4989 26.2362 9.6335C28.1344 8.76814 27.9416 6.38667 28.9648 7.22271Z" fill="#628BFD"/>
<path d="M32.2154 14.937C31.994 13.6227 30.2935 8.30843 28.9648 7.22271C27.9416 6.38667 28.1344 8.76814 26.2362 9.6335C24.3381 10.4989 24.1008 11.2344 25.643 11.4075C26.8768 11.546 27.1378 11.4075 27.4463 11.0181C27.6361 10.0878 28.4286 8.88929 28.8462 9.6335C29.3682 10.5638 30.1274 10.7585 29.9613 11.083C29.7952 11.4075 27.8549 12.3378 27.3751 12.3378C26.9717 12.3378 26.2362 12.208 25.1685 13.1166C24.1008 14.0252 21.5144 12.641 22.7482 14.4799C23.7352 15.951 24.0216 15.6227 24.5752 14.937C24.7334 14.6341 25.2554 14.9386 26.0146 14.7656C26.7739 14.5925 27.375 14.1394 27.897 15.3941C28.3241 15.5888 27.7744 13.9044 28.1818 14.0901C28.7038 14.3281 28.626 14.2498 29.7003 15.1069C30.08 15.4098 32.5001 15.8857 32.2154 16.578C31.9566 17.2073 30.2935 16.4627 30.2935 16.6429C30.0404 16.6862 30.1986 17.2357 28.9648 16.9242C27.4226 16.5348 26.9955 15.3449 26.4735 15.8857C25.9515 16.4266 23.4602 16.4699 23.1043 17.5516C22.7484 18.6333 21.7518 19.9097 23.1043 21.1645C24.4567 22.4192 26.3311 20.5371 27.1141 21.9866C27.8971 23.436 25.5244 26.414 27.897 27.2799C29.0833 27.7128 31.3295 20.9475 31.8831 20.5941L32.2154 14.937Z" stroke="#628BFD" stroke-width="0.815635" stroke-linejoin="round"/>
<path d="M7.81327 8.56696C7.38701 8.24346 10.7281 5.67969 10.2524 5.24573C10.0393 5.05131 9.12698 5.33884 8.33425 5.24573C7.86195 5.19026 7.17658 4.65131 6.81868 4.65131C6.41599 4.65131 2.92811 9.16559 2.65128 9.79416C2.04251 11.1765 0.969516 14.3683 1.63258 14.3683C2.29564 14.3683 1.84571 16.6112 2.43773 17.4739C3.02975 18.3366 3.97698 18.4228 5.16102 18.5953C6.46819 18.7858 6.81868 19.307 6.81868 19.5658C6.81868 19.8246 6.17929 22.7361 7.57646 23.8144C8.97363 24.8927 9.09204 24.6986 9.09204 25.4103C9.09204 25.9512 9.03435 29.9452 9.35024 30.6513C9.80018 30.4788 11.5643 32.1822 11.5075 31.9234C11.4364 31.5999 11.1286 30.7804 11.768 28.6237C12.4074 26.4671 14.843 26.2054 15.4859 25.1515C16.1963 23.9869 17.6222 22.2495 16.0779 21.7009C14.9173 21.2886 14.0176 21.8087 12.5731 19.954C10.9504 19.0894 10.3 18.6938 9.58934 18.5953C8.90679 18.5008 8.5237 18.7679 7.93168 18.9835C7.33966 19.1992 7.57646 18.2934 6.81868 18.0131C6.06089 17.7327 6.22665 16.7191 5.16102 17.2582C4.09538 17.7974 3.52064 16.3339 4.64004 15.5976C5.0663 15.3173 6.20297 15.4898 7.0318 16.2877C7.86063 17.0857 8.50001 16.2877 8.1448 15.5976C7.78959 14.9075 9.66877 14.6909 10.0393 13.6998C10.4182 12.6861 11.9574 13.2037 12.9047 12.6214C13.8519 12.0392 11.768 11.5431 12.9047 11.1765C14.0413 10.8099 12.4547 9.68841 12.4547 8.84732C12.4547 8.00513 11.247 7.74744 10.6076 7.27298C9.96823 6.79851 10.4182 8.97672 9.58934 9.34335C8.86375 9.66431 8.85523 10.1844 8.33425 10.0982C8.08166 10.2204 8.4562 9.0549 7.81327 8.56696Z" fill="#628BFD" stroke="#628BFD" stroke-width="0.135939" stroke-linejoin="round"/>
<path d="M13.1703 1.90848C14.8865 1.73705 15.8117 2.02478 16.5225 1.27991C18.4573 1.42179 18.5405 1.67991 19.9246 1.67991C20.9824 1.67991 19.6023 2.31654 19.247 4.74269C18.8916 7.16885 18.1809 5.445 16.5225 5.87064C14.8641 6.29628 16.3643 9.91789 14.9973 8.70848C14.6097 8.36562 15.1849 5.92712 14.5544 4.47991C13.7824 2.70806 12.3606 1.98935 13.1703 1.90848Z" fill="#628BFD" stroke="#628BFD" stroke-width="0.815635" stroke-linejoin="round"/>
</svg>
