<svg width="462" height="330" viewBox="0 0 462 330" fill="none" xmlns="http://www.w3.org/2000/svg">
<rect x="59" y="211" width="172" height="47" fill="#6C6C6C" stroke="black" stroke-width="8"/>
<path d="M247.223 176.378L286.676 25.502L317.322 39.9234L258.035 201.5L247.223 176.378Z" fill="#6C6C6C" stroke="black" stroke-width="8"/>
<path d="M413.825 276.221L418.301 118.233L443.452 116.698L434.654 278.352L413.825 276.221Z" fill="#6C6C6C" stroke="black" stroke-width="8"/>
<path d="M307.081 40.8932L324.09 22.1216L437.391 94.6909L414.378 120.41L307.081 40.8932Z" fill="#6C6C6C" stroke="black" stroke-width="8"/>
<circle cx="305.209" cy="24.7915" r="20.7915" fill="#1A1A1A" stroke="black" stroke-width="8"/>
<circle cx="431.257" cy="112.074" r="20.7915" transform="rotate(13.9485 431.257 112.074)" fill="#1A1A1A" stroke="black" stroke-width="8"/>
<path d="M413.181 325.445H343.226C341.399 325.445 339.917 323.964 339.917 322.137C339.917 320.98 340.522 319.907 341.511 319.307L350.816 313.668C353.189 312.23 355.197 310.262 356.684 307.92L394.555 248.249C396.291 245.513 396.21 242.001 394.35 239.349L392.873 237.242C391.34 235.055 391.718 232.062 393.747 230.325C395.817 228.554 398.904 228.687 400.815 230.629L443.141 273.651C449.56 280.176 450.06 290.48 444.303 297.596L427.175 318.767C423.757 322.991 418.614 325.445 413.181 325.445Z" fill="#1A1A1A" stroke="black" stroke-width="8"/>
<path d="M144 87C144 78.7157 150.716 72 159 72H251.016C258.134 72 264.271 77.0016 265.708 83.9724L288.376 193.972C290.294 203.278 283.187 212 273.685 212H159C150.716 212 144 205.284 144 197V87Z" fill="#FFD600" stroke="black" stroke-width="8"/>
<path d="M157 86.5V162C157 164.209 158.791 166 161 166H264.517C267.075 166 268.975 163.632 268.422 161.135L251.695 85.6348C251.289 83.8034 249.665 82.5 247.789 82.5H161C158.791 82.5 157 84.2909 157 86.5Z" fill="#628BFD"/>
<path d="M199.5 82.5L201 166.5M157 86.5C157 84.2909 158.791 82.5 161 82.5H247.789C249.665 82.5 251.289 83.8034 251.695 85.6348L268.422 161.135C268.975 163.632 267.075 166 264.517 166H161C158.791 166 157 164.209 157 162V86.5Z" stroke="black" stroke-width="8"/>
<path d="M234 230H56C46.6112 230 39 222.389 39 213V149C39 139.611 46.6112 132 56 132H183.434C187.392 132 191.227 133.382 194.276 135.907L244.843 177.782C248.743 181.012 251 185.812 251 190.875V213C251 222.389 243.389 230 234 230Z" fill="#FFD600" stroke="black" stroke-width="8"/>
<path d="M37 173.5H69.1787C70.6141 173.5 71.9395 174.269 72.6517 175.515L84.3483 195.985C85.0605 197.231 86.3859 198 87.8213 198H254" stroke="black" stroke-width="8"/>
<rect x="4" y="246" width="325" height="75" rx="37.5" fill="#1A1A1A" stroke="black" stroke-width="8"/>
<circle cx="47" cy="284" r="18" fill="#6C6C6C" stroke="black" stroke-width="8"/>
<rect x="86" y="273" width="193" height="21" rx="6" fill="#6C6C6C" stroke="black" stroke-width="8"/>
<mask id="path-16-inside-1_633_203" fill="white">
<rect x="258" y="262" width="49" height="44" rx="5"/>
</mask>
<rect x="258" y="262" width="49" height="44" rx="5" fill="#6C6C6C" stroke="black" stroke-width="16" mask="url(#path-16-inside-1_633_203)"/>
</svg>
