<svg width="320" height="276" viewBox="0 0 320 276" fill="none" xmlns="http://www.w3.org/2000/svg">
<path d="M160.077 46.1174L160.541 47.1775L160.995 46.1129C168.503 28.4956 179.622 17.1052 192.76 10.1113C205.908 3.11229 221.11 0.5 236.799 0.5C281.343 0.5 319.5 34.7326 319.5 82.3508C319.5 94.3168 318.967 104.96 315.828 116.052C312.69 127.139 306.94 138.703 296.47 152.483C275.543 180.025 235.806 216.362 160.535 275.365C85.2635 216.362 45.2578 180.024 24.0631 152.481C13.4588 138.7 7.57561 127.135 4.3383 116.048C1.10004 104.957 0.5 94.3143 0.5 82.3508C0.5 34.7326 38.6569 0.5 83.2007 0.5C98.8903 0.5 114.257 3.11225 127.622 10.1129C140.978 17.1085 152.362 28.5009 160.077 46.1174Z" fill="#D9D9D9" stroke="black"/>
</svg>
