<svg width="311" height="238" viewBox="0 0 311 238" fill="none" xmlns="http://www.w3.org/2000/svg">
<path d="M52.0807 102.957C-4.55364 156.45 -1.35792 218.322 1.07072 227.344C2.59147 232.994 5.98564 236.403 11.3947 237.656C17.4187 239.052 21.8214 236.054 25.9691 231.211C32.0415 224.122 59.667 188.575 95.1961 171.918C128.912 156.111 187.16 156.45 187.16 156.45L187.424 186.32C187.501 194.936 196.91 199.659 203.233 194.255L307.377 105.265C312.266 101.087 312.196 93.1602 307.234 89.0808L201.536 2.17958C195.117 -3.09729 185.794 1.81209 185.87 10.4283L186.22 50.1083C186.22 50.1083 108.715 49.4637 52.0807 102.957Z" fill="#D9D9D9"/>
</svg>
